<svg width="172" height="24" viewBox="0 0 172 24" fill="none" xmlns="http://www.w3.org/2000/svg">
<path d="M0.380493 23.296V0.416H7.99649L10.7805 10.432L12.0925 15.648H12.1565C12.7538 13.1307 13.1805 11.392 13.4365 10.432L16.2525 0.416H23.9325V23.296H18.7485V11.776L18.8445 7.2H18.7805C18.2472 9.48267 17.8952 10.9013 17.7245 11.456L14.4285 23.296H9.75649L6.49249 11.488L5.43649 7.2H5.37249C5.43649 9.65333 5.46849 11.1893 5.46849 11.808V23.296H0.380493Z" fill="white"/>
<path d="M27.068 23.296V0.416H44.412V5.088H32.732V9.184H42.748V13.6H32.732V18.496H44.604V23.296H27.068Z" fill="white"/>
<path d="M47.1617 23.296V0.416H52.8257V18.496H63.0977V23.296H47.1617Z" fill="white"/>
<path d="M63.968 23.296L72.192 0.416H78.016L86.272 23.296H80.32L78.976 19.168H70.976L69.664 23.296H63.968ZM72.288 15.104H77.664L75.936 9.568L75.04 6.336H74.976C74.6133 7.70133 74.304 8.77867 74.048 9.568L72.288 15.104Z" fill="white"/>
<path d="M87.8805 23.296V0.416H93.5765L100.36 11.904L101.928 14.816H101.992C101.95 12.9813 101.928 11.7973 101.928 11.264V0.416H107.464V23.296H101.768L95.0485 11.968L93.4165 8.896H93.3525C93.3952 10.8587 93.4165 12.1067 93.4165 12.64V23.296H87.8805Z" fill="white"/>
<path d="M110.631 23.296V0.416H116.295V23.296H110.631Z" fill="white"/>
<path d="M128.563 23.84C125.47 23.84 123.006 23.1787 121.171 21.856C119.358 20.512 118.419 18.592 118.355 16.096H124.051C124.286 18.272 125.779 19.36 128.531 19.36C129.555 19.36 130.419 19.168 131.123 18.784C131.848 18.3787 132.211 17.7707 132.211 16.96C132.211 16.4053 131.987 15.9467 131.539 15.584C131.091 15.2 130.632 14.9333 130.163 14.784C129.715 14.6347 128.851 14.4 127.571 14.08C127.507 14.0587 127.464 14.048 127.443 14.048C127.422 14.0267 127.39 14.016 127.347 14.016C127.304 13.9947 127.262 13.984 127.219 13.984C126.238 13.7493 125.427 13.5467 124.787 13.376C124.168 13.184 123.454 12.9067 122.643 12.544C121.854 12.16 121.224 11.744 120.755 11.296C120.286 10.848 119.88 10.2613 119.539 9.536C119.219 8.78933 119.059 7.95733 119.059 7.04C119.059 4.69333 119.891 2.93333 121.555 1.76C123.24 0.586667 125.438 0 128.147 0C130.75 0 132.872 0.597333 134.515 1.792C136.179 2.98667 137.064 4.736 137.171 7.04H131.635C131.528 6.16533 131.155 5.49333 130.515 5.024C129.875 4.53333 129.022 4.288 127.955 4.288C126.974 4.288 126.174 4.49067 125.555 4.896C124.958 5.28 124.659 5.792 124.659 6.432C124.659 7.15733 125.022 7.69067 125.747 8.032C126.472 8.352 127.838 8.736 129.843 9.184C131.102 9.48267 132.136 9.78133 132.947 10.08C133.758 10.3573 134.579 10.7627 135.411 11.296C136.264 11.8293 136.894 12.5227 137.299 13.376C137.726 14.208 137.939 15.2107 137.939 16.384C137.939 18.7093 137.054 20.5333 135.283 21.856C133.534 23.1787 131.294 23.84 128.563 23.84Z" fill="white"/>
<path d="M140.255 23.296V0.416H145.919V9.088H153.951V0.416H159.615V23.296H153.951V13.76H145.919V23.296H140.255Z" fill="white"/>
<path d="M166.837 6.648L165.653 5.784L166.837 4.216L164.965 3.592L165.477 2.264L167.253 2.888V0.856001H168.757V2.888L170.533 2.264L171.045 3.592L169.173 4.216L170.357 5.784L169.205 6.648L168.021 4.984L166.837 6.648Z" fill="white"/>
</svg>
