<!-- assets/sprite.svg -->
<svg xmlns="http://www.w3.org/2000/svg" style="display: none;">

  <!-- Site logo. -->
  <symbol id="logo-site" viewBox="0 0 40 24" fill="none" xmlns="http://www.w3.org/2000/svg">
    <path
      d="M2.73725 15.9546L8.02428 21.2416C8.02755 21.2449 8.03107 21.2479 8.03433 21.2512C8.0376 21.2545 8.0415 21.2589 8.04527 21.2626C9.5881 22.8053 11.6221 23.7597 13.7947 23.9604C15.9673 24.161 18.1415 23.5954 19.9409 22.3614C21.7403 23.5954 23.9145 24.161 26.0871 23.9604C28.2597 23.7597 30.2936 22.8053 31.8365 21.2626L37.1236 15.9757C38.7708 14.3281 39.7433 12.1246 39.8503 9.79722C39.9574 7.46983 39.1914 5.1863 37.7024 3.3943C36.2134 1.60243 34.1088 0.431138 31.8012 0.110233C29.4936 -0.210673 27.1492 0.341801 25.2278 1.65948C23.672 0.592597 21.8299 0.0213989 19.9435 0.0207712C18.057 0.0202675 16.2147 0.59046 14.6583 1.65646C12.7391 0.330617 10.3935 -0.229523 8.08233 0.0858546C5.77116 0.401357 3.66152 1.56951 2.16769 3.36113C0.673986 5.15275 -0.095736 7.43817 0.00955706 9.76831C0.114976 12.0986 1.08787 14.3052 2.73725 15.9546ZM28.0987 4.30701C29.2923 3.73695 30.6489 3.60728 31.9288 3.94075C33.2088 4.27409 34.3297 5.04934 35.0934 6.12929C35.857 7.20924 36.2144 8.52427 36.1022 9.8422C35.9901 11.1601 35.4156 12.396 34.4804 13.3313L29.1935 18.6184C28.3729 19.4379 27.3187 19.9833 26.1757 20.1797C25.0327 20.376 23.8569 20.2138 22.8098 19.7151L26.5496 15.9757C27.9838 14.549 28.9122 12.6925 29.1935 10.6892C29.2554 10.2512 29.2867 9.8094 29.287 9.367C29.2907 7.6181 28.8003 5.90375 27.8722 4.42135C27.9471 4.3814 28.0226 4.34345 28.0987 4.30739L28.0987 4.30701ZM15.9757 5.40141C17.0285 4.35551 18.453 3.76974 19.937 3.77213C21.421 3.77464 22.8435 4.36531 23.8929 5.4146C24.9422 6.46402 25.5329 7.88648 25.5354 9.37051C25.5378 10.8545 24.952 12.279 23.9061 13.3318L19.9409 17.297L15.9757 13.3318C14.9259 12.2794 14.3364 10.8535 14.3364 9.36699C14.3364 7.88057 14.9259 6.45472 15.9757 5.40229L15.9757 5.40141ZM5.38077 5.38042C6.20527 4.55805 7.26499 4.01236 8.41329 3.81874C9.56159 3.62512 10.7417 3.79324 11.7902 4.29985C11.8656 4.33616 11.9402 4.37423 12.014 4.41406C11.0831 5.8981 10.591 7.61521 10.5948 9.36699C10.5952 9.8094 10.6263 10.2512 10.6883 10.6892C10.9695 12.6925 11.898 14.549 13.3322 15.9757L17.0491 19.6925L17.0701 19.7135C16.0236 20.2119 14.8484 20.3743 13.7058 20.1784C12.5633 19.9825 11.5095 19.4378 10.6888 18.6192C10.685 18.6155 10.6815 18.6114 10.6778 18.6077C10.6742 18.6039 10.6711 18.6014 10.6678 18.5981L5.40552 13.3358L5.38039 13.3107C4.32884 12.259 3.73804 10.8327 3.73804 9.34551C3.73804 7.85833 4.32884 6.43198 5.38039 5.3803L5.38077 5.38042Z"
      fill="currentColor" />
  </symbol>

  <!-- Partner's logo. -->
  <symbol id="logo-airbnb" viewBox="0 0 154 48" fill="none" xmlns="http://www.w3.org/2000/svg">
    <g clip-path="url(#clip0_32_890)">
      <path
        d="M80.7354 12.0601C80.7354 13.7898 79.3476 15.1832 77.6247 15.1832C75.9018 15.1832 74.514 13.7898 74.514 12.0601C74.514 10.3303 75.854 8.93694 77.6247 8.93694C79.3954 8.98498 80.7354 10.3784 80.7354 12.0601ZM67.9096 18.3544C67.9096 18.6426 67.9096 19.1231 67.9096 19.1231C67.9096 19.1231 66.4261 17.2012 63.2675 17.2012C58.051 17.2012 53.9832 21.1892 53.9832 26.7147C53.9832 32.1922 58.0032 36.2282 63.2675 36.2282C66.4739 36.2282 67.9096 34.2583 67.9096 34.2583V35.0751C67.9096 35.4595 68.1968 35.7477 68.5797 35.7477H72.4561V17.6817C72.4561 17.6817 68.9147 17.6817 68.5797 17.6817C68.1968 17.6817 67.9096 18.018 67.9096 18.3544ZM67.9096 29.9339C67.1918 30.991 65.7561 31.9039 64.0332 31.9039C60.9703 31.9039 58.6253 29.982 58.6253 26.7147C58.6253 23.4474 60.9703 21.5255 64.0332 21.5255C65.7082 21.5255 67.2396 22.4865 67.9096 23.4955V29.9339ZM75.3275 17.6817H79.9219V35.7477H75.3275V17.6817ZM143.955 17.2012C140.796 17.2012 139.313 19.1231 139.313 19.1231V8.98499H134.719V35.7477C134.719 35.7477 138.26 35.7477 138.595 35.7477C138.978 35.7477 139.265 35.4114 139.265 35.0751V34.2583C139.265 34.2583 140.749 36.2282 143.907 36.2282C149.124 36.2282 153.192 32.1922 153.192 26.7147C153.192 21.2372 149.124 17.2012 143.955 17.2012ZM143.189 31.8559C141.419 31.8559 140.031 30.9429 139.313 29.8859V23.4474C140.031 22.4865 141.562 21.4775 143.189 21.4775C146.252 21.4775 148.597 23.3994 148.597 26.6667C148.597 29.9339 146.252 31.8559 143.189 31.8559ZM132.326 25.033V35.7958H127.731V25.5616C127.731 22.5826 126.774 21.3814 124.19 21.3814C122.802 21.3814 121.366 22.1021 120.457 23.1592V35.7477H115.863V17.6817H119.5C119.883 17.6817 120.17 18.018 120.17 18.3544V19.1231C121.51 17.7297 123.281 17.2012 125.051 17.2012C127.061 17.2012 128.736 17.7778 130.076 18.9309C131.704 20.2763 132.326 22.006 132.326 25.033ZM104.712 17.2012C101.553 17.2012 100.07 19.1231 100.07 19.1231V8.98499H95.4755V35.7477C95.4755 35.7477 99.017 35.7477 99.352 35.7477C99.7348 35.7477 100.022 35.4114 100.022 35.0751V34.2583C100.022 34.2583 101.506 36.2282 104.664 36.2282C109.881 36.2282 113.948 32.1922 113.948 26.7147C113.996 21.2372 109.928 17.2012 104.712 17.2012ZM103.946 31.8559C102.176 31.8559 100.788 30.9429 100.07 29.8859V23.4474C100.788 22.4865 102.319 21.4775 103.946 21.4775C107.009 21.4775 109.354 23.3994 109.354 26.6667C109.354 29.9339 107.009 31.8559 103.946 31.8559ZM91.5033 17.2012C92.8912 17.2012 93.6091 17.4414 93.6091 17.4414V21.7177C93.6091 21.7177 89.7805 20.4204 87.3876 23.1592V35.7958H82.7933V17.6817C82.7933 17.6817 86.3347 17.6817 86.6697 17.6817C87.0526 17.6817 87.3398 18.018 87.3398 18.3544V19.1231C88.2012 18.1141 90.0676 17.2012 91.5033 17.2012ZM43.7895 34.1141C43.5502 33.5375 43.311 32.9129 43.0717 32.3844C42.6888 31.5195 42.3059 30.7027 41.9709 29.9339L41.9231 29.8859C38.6209 22.6787 35.0795 15.3754 31.3466 8.16817L31.203 7.87988C30.8202 7.15916 30.4373 6.39039 30.0545 5.62162C29.5759 4.75676 29.0973 3.84384 28.3316 2.97898C26.8002 1.05706 24.5987 0 22.2537 0C19.8608 0 17.7073 1.05706 16.128 2.88288C15.4101 3.74775 14.8837 4.66066 14.4051 5.52553C14.0222 6.29429 13.6394 7.06306 13.2565 7.78378L13.1129 8.07207C9.42793 15.2793 5.83862 22.5826 2.53646 29.7898L2.4886 29.8859C2.1536 30.6547 1.77074 31.4715 1.38789 32.3363C1.1486 32.8649 0.909311 33.4414 0.670024 34.0661C0.0478782 35.8438 -0.143551 37.5255 0.0957356 39.2553C0.622167 42.8589 3.01504 45.8859 6.3172 47.2312C7.56149 47.7598 8.85364 48 10.1936 48C10.5765 48 11.0551 47.952 11.4379 47.9039C13.0172 47.7117 14.6444 47.1832 16.2237 46.2703C18.1858 45.1652 20.0523 43.5796 22.158 41.2733C24.2637 43.5796 26.178 45.1652 28.0923 46.2703C29.6716 47.1832 31.2987 47.7117 32.878 47.9039C33.2609 47.952 33.7395 48 34.1223 48C35.4623 48 36.8023 47.7598 37.9988 47.2312C41.3488 45.8859 43.6938 42.8108 44.2202 39.2553C44.6031 37.5736 44.4117 35.8919 43.7895 34.1141ZM22.2058 36.6126C19.6216 33.3453 17.9465 30.2703 17.3723 27.6757C17.133 26.5706 17.0851 25.6096 17.2287 24.7447C17.3244 23.976 17.6115 23.3033 17.9944 22.7267C18.9037 21.4294 20.4351 20.6126 22.2058 20.6126C23.9766 20.6126 25.5559 21.3814 26.4173 22.7267C26.8002 23.3033 27.0873 23.976 27.183 24.7447C27.3266 25.6096 27.2787 26.6186 27.0394 27.6757C26.4652 30.2222 24.7901 33.2973 22.2058 36.6126ZM41.3009 38.8709C40.9659 41.3694 39.2909 43.5315 36.9459 44.4925C35.7973 44.973 34.5531 45.1171 33.3088 44.973C32.1123 44.8288 30.9159 44.4444 29.6716 43.7237C27.9487 42.7628 26.2259 41.2733 24.2159 39.0631C27.3744 35.1712 29.2887 31.6156 30.0066 28.4444C30.3416 26.955 30.3895 25.6096 30.2459 24.3604C30.0545 23.1592 29.6237 22.0541 28.9537 21.0931C27.4702 18.9309 24.9816 17.6817 22.2058 17.6817C19.4301 17.6817 16.9415 18.979 15.458 21.0931C14.788 22.0541 14.3572 23.1592 14.1658 24.3604C13.9744 25.6096 14.0222 27.003 14.4051 28.4444C15.123 31.6156 17.0851 35.2192 20.1958 39.1111C18.2337 41.3213 16.463 42.8108 14.7401 43.7718C13.4958 44.4925 12.2994 44.8769 11.1029 45.021C9.81079 45.1652 8.56649 44.973 7.46577 44.5405C5.12076 43.5796 3.44575 41.4174 3.11075 38.9189C2.96718 37.7177 3.06289 36.5165 3.54147 35.1712C3.68504 34.6907 3.92433 34.2102 4.16361 33.6336C4.49861 32.8649 4.88147 32.048 5.26433 31.2312L5.31219 31.1351C8.61435 23.976 12.1558 16.6727 15.8408 9.56156L15.9844 9.27327C16.3672 8.55255 16.7501 7.78378 17.133 7.06306C17.5158 6.29429 17.9465 5.57357 18.473 4.94895C19.478 3.7958 20.818 3.17117 22.3016 3.17117C23.7851 3.17117 25.1251 3.7958 26.1302 4.94895C26.6566 5.57357 27.0873 6.29429 27.4702 7.06306C27.853 7.78378 28.2359 8.55255 28.6187 9.27327L28.7623 9.56156C32.3995 16.7207 35.9409 24.024 39.2431 31.1832V31.2312C39.6259 32 39.9609 32.8649 40.3438 33.6336C40.5831 34.2102 40.8224 34.6907 40.9659 35.1712C41.3488 36.4204 41.4924 37.6216 41.3009 38.8709Z"
        fill="#999999" />
    </g>
    <defs>
      <clipPath id="clip0_32_890">
        <rect width="153.191" height="48" fill="white" />
      </clipPath>
    </defs>
  </symbol>

  <symbol id="logo-google" viewBox="0 0 147 48" fill="none" xmlns="http://www.w3.org/2000/svg">
    <g clip-path="url(#clip0_32_892)">
      <path
        d="M141.768 29.3349L145.826 32.0403C144.509 33.9803 141.359 37.3087 135.912 37.3087C129.149 37.3087 124.112 32.0759 124.112 25.4192C124.112 18.3353 129.202 13.5297 135.343 13.5297C141.519 13.5297 144.545 18.4421 145.524 21.0941L146.058 22.4468L130.146 29.0323C131.356 31.4173 133.243 32.6276 135.912 32.6276C138.582 32.6276 140.433 31.3105 141.768 29.3349ZM129.291 25.0454L139.917 20.6314C139.33 19.1541 137.586 18.104 135.503 18.104C132.851 18.104 129.167 20.4534 129.291 25.0454Z"
        fill="#999999" />
      <path d="M116.441 1.40887H121.567V36.2229H116.441V1.40887Z" fill="#999999" />
      <path
        d="M108.36 14.4553H113.308V35.6C113.308 44.3747 108.129 47.9878 102.006 47.9878C96.2394 47.9878 92.7687 44.1077 91.4694 40.9574L96.008 39.0707C96.8268 41.0108 98.8024 43.3068 102.006 43.3068C105.94 43.3068 108.36 40.8684 108.36 36.3119V34.6033H108.182C107.008 36.0272 104.765 37.3087 101.917 37.3087C95.9724 37.3087 90.526 32.1293 90.526 25.4548C90.526 18.7447 95.9724 13.5119 101.917 13.5119C104.747 13.5119 107.008 14.7756 108.182 16.1639H108.36V14.4553ZM108.716 25.4548C108.716 21.2543 105.922 18.193 102.362 18.193C98.7668 18.193 95.741 21.2543 95.741 25.4548C95.741 29.6019 98.7668 32.6098 102.362 32.6098C105.922 32.6276 108.716 29.6019 108.716 25.4548Z"
        fill="#999999" />
      <path
        d="M62.3865 25.3658C62.3865 32.2183 57.0469 37.2553 50.497 37.2553C43.9471 37.2553 38.6075 32.2005 38.6075 25.3658C38.6075 18.4777 43.9471 13.4585 50.497 13.4585C57.0469 13.4585 62.3865 18.4777 62.3865 25.3658ZM57.1893 25.3658C57.1893 21.0941 54.0923 18.1574 50.497 18.1574C46.9017 18.1574 43.8047 21.0941 43.8047 25.3658C43.8047 29.6019 46.9017 32.5742 50.497 32.5742C54.0923 32.5742 57.1893 29.6019 57.1893 25.3658Z"
        fill="#999999" />
      <path
        d="M88.3546 25.4192C88.3546 32.2717 83.015 37.3087 76.4651 37.3087C69.9153 37.3087 64.5757 32.2717 64.5757 25.4192C64.5757 18.5311 69.9153 13.5297 76.4651 13.5297C83.015 13.5297 88.3546 18.5133 88.3546 25.4192ZM83.1396 25.4192C83.1396 21.1475 80.0427 18.2108 76.4474 18.2108C72.852 18.2108 69.7551 21.1475 69.7551 25.4192C69.7551 29.6553 72.852 32.6276 76.4474 32.6276C80.0605 32.6276 83.1396 29.6375 83.1396 25.4192Z"
        fill="#999999" />
      <path
        d="M19.0647 32.0937C11.6071 32.0937 5.76912 26.0777 5.76912 18.6201C5.76912 11.1625 11.6071 5.14658 19.0647 5.14658C23.0872 5.14658 26.0239 6.73065 28.1954 8.75969L31.7729 5.18217C28.7471 2.281 24.7068 0.0739746 19.0647 0.0739746C8.84828 0.0739746 0.251556 8.40372 0.251556 18.6201C0.251556 28.8365 8.84828 37.1663 19.0647 37.1663C24.5822 37.1663 28.7471 35.3508 32.0043 31.9691C35.3504 28.6229 36.3827 23.9241 36.3827 20.1152C36.3827 18.9227 36.2403 17.6946 36.0801 16.7869H19.0647V21.7349H31.1855C30.8296 24.8318 29.8506 26.9499 28.4089 28.3916C26.6647 30.1536 23.9059 32.0937 19.0647 32.0937Z"
        fill="#999999" />
    </g>
    <defs>
      <clipPath id="clip0_32_892">
        <rect width="146.286" height="48" fill="white" transform="translate(0.0389404)" />
      </clipPath>
    </defs>
  </symbol>

  <symbol id="logo-slack" viewBox="0 0 189 48" fill="none" xmlns="http://www.w3.org/2000/svg">
    <g clip-path="url(#clip0_32_900)">
      <path
        d="M60.4556 37.6063L62.7989 32.1638C65.3312 34.0535 68.695 35.0362 72.0209 35.0362C74.4776 35.0362 76.0272 34.0913 76.0272 32.6551C75.9894 28.6488 61.3249 31.7858 61.2115 21.7323C61.1737 16.6299 65.7091 12.6992 72.1343 12.6992C75.9516 12.6992 79.769 13.6441 82.4902 15.7984L80.2981 21.3543C77.8036 19.7669 74.7044 18.6331 71.7564 18.6331C69.7532 18.6331 68.4304 19.578 68.4304 20.7874C68.4682 24.7181 83.2461 22.5638 83.3973 32.1638C83.3973 37.3795 78.9753 41.0457 72.6257 41.0457C67.9768 41.0457 63.706 39.9496 60.4556 37.6063ZM150.371 30.1984C149.199 32.2394 147.007 33.6378 144.474 33.6378C140.733 33.6378 137.709 30.6142 137.709 26.8724C137.709 23.1307 140.733 20.1071 144.474 20.1071C147.007 20.1071 149.199 21.5055 150.371 23.5465L156.834 19.9559C154.415 15.6472 149.766 12.6992 144.474 12.6992C136.651 12.6992 130.301 19.0488 130.301 26.8724C130.301 34.6961 136.651 41.0457 144.474 41.0457C149.804 41.0457 154.415 38.1354 156.834 33.789L150.371 30.1984ZM86.6477 0.944885H94.7359V40.5165H86.6477V0.944885ZM160.008 0.944885V40.5165H168.097V28.6488L177.697 40.5165H188.052L175.845 26.4189L187.145 13.2661H177.243L168.097 24.189V0.944885H160.008ZM118.774 30.274C117.602 32.2016 115.183 33.6378 112.462 33.6378C108.72 33.6378 105.697 30.6142 105.697 26.8724C105.697 23.1307 108.72 20.1071 112.462 20.1071C115.183 20.1071 117.602 21.6189 118.774 23.5843V30.274ZM118.774 13.2661V16.4787C117.451 14.2488 114.163 12.6992 110.723 12.6992C103.618 12.6992 98.0241 18.9732 98.0241 26.8346C98.0241 34.6961 103.618 41.0457 110.723 41.0457C114.163 41.0457 117.451 39.4961 118.774 37.2661V40.4787H126.862V13.2661H118.774Z"
        fill="#999999" />
      <path
        d="M10.4524 30.2362C10.4524 32.9953 8.22251 35.2252 5.46346 35.2252C2.7044 35.2252 0.47448 32.9953 0.47448 30.2362C0.47448 27.4772 2.7044 25.2473 5.46346 25.2473H10.4524V30.2362ZM12.9469 30.2362C12.9469 27.4772 15.1768 25.2473 17.9359 25.2473C20.695 25.2473 22.9249 27.4772 22.9249 30.2362V42.7087C22.9249 45.4677 20.695 47.6976 17.9359 47.6976C15.1768 47.6976 12.9469 45.4677 12.9469 42.7087V30.2362Z"
        fill="#999999" />
      <path
        d="M17.9359 10.2047C15.1768 10.2047 12.9469 7.97481 12.9469 5.21575C12.9469 2.4567 15.1768 0.226776 17.9359 0.226776C20.695 0.226776 22.9249 2.4567 22.9249 5.21575V10.2047H17.9359ZM17.9359 12.737C20.695 12.737 22.9249 14.9669 22.9249 17.726C22.9249 20.485 20.695 22.715 17.9359 22.715H5.42566C2.6666 22.715 0.436684 20.485 0.436684 17.726C0.436684 14.9669 2.6666 12.737 5.42566 12.737H17.9359Z"
        fill="#999999" />
      <path
        d="M37.9296 17.726C37.9296 14.9669 40.1595 12.737 42.9186 12.737C45.6776 12.737 47.9076 14.9669 47.9076 17.726C47.9076 20.485 45.6776 22.715 42.9186 22.715H37.9296V17.726ZM35.4351 17.726C35.4351 20.485 33.2052 22.715 30.4461 22.715C27.6871 22.715 25.4572 20.485 25.4572 17.726V5.21575C25.4572 2.4567 27.6871 0.226776 30.4461 0.226776C33.2052 0.226776 35.4351 2.4567 35.4351 5.21575V17.726Z"
        fill="#999999" />
      <path
        d="M30.4461 37.7197C33.2052 37.7197 35.4351 39.9496 35.4351 42.7087C35.4351 45.4677 33.2052 47.6976 30.4461 47.6976C27.6871 47.6976 25.4572 45.4677 25.4572 42.7087V37.7197H30.4461ZM30.4461 35.2252C27.6871 35.2252 25.4572 32.9953 25.4572 30.2362C25.4572 27.4772 27.6871 25.2473 30.4461 25.2473H42.9564C45.7154 25.2473 47.9454 27.4772 47.9454 30.2362C47.9454 32.9953 45.7154 35.2252 42.9564 35.2252H30.4461Z"
        fill="#999999" />
    </g>
    <defs>
      <clipPath id="clip0_32_900">
        <rect width="188.22" height="48" fill="white" transform="translate(0.172119)" />
      </clipPath>
    </defs>
  </symbol>

  <symbol id="logo-netflix" viewBox="0 0 178 48" fill="none" xmlns="http://www.w3.org/2000/svg">
    <g clip-path="url(#clip0_32_907)">
      <path
        d="M24.6391 44.9061C21.9698 45.3752 19.2536 45.5159 16.4438 45.8905L7.87344 20.7657V46.9689C5.20415 47.25 2.76898 47.625 0.240051 48V0H7.35861L17.0993 27.2348V0H24.6391V44.9061ZM39.3911 17.5781C42.2948 17.5781 46.7437 17.4375 49.413 17.4375V24.9373C46.0879 24.9373 42.2011 24.9373 39.3911 25.078V36.2344C43.7934 35.9533 48.1955 35.5779 52.6443 35.4373V42.6556L31.8979 44.2966V0H52.6443V7.50001H39.3911V17.5781ZM80.5089 7.50018H72.735V42.0001C70.206 42.0001 67.6771 42.0001 65.2423 42.0936V7.50018H57.4684V0H80.5092L80.5089 7.50018ZM92.6849 17.0627H102.941V24.5625H92.6849V41.5783H85.3319V0H106.266V7.50001H92.6849V17.0627ZM118.442 35.0156C122.704 35.1091 127.012 35.4378 131.18 35.6718V43.0781C124.484 42.6559 117.787 42.2346 110.949 42.0936V0H118.442V35.0156ZM137.503 43.5938C139.891 43.7346 142.42 43.8753 144.855 44.1561V0H137.503V43.5938ZM177.684 0L168.177 22.8282L177.684 48C174.874 47.625 172.064 47.1093 169.254 46.6405L163.869 32.7658L158.39 45.5159C155.673 45.0467 153.051 44.9061 150.335 44.5311L159.982 22.5467L151.271 0H159.326L164.243 12.6094L169.489 0H177.684V0Z"
        fill="#999999" />
    </g>
    <defs>
      <clipPath id="clip0_32_907">
        <rect width="177.444" height="48" fill="white" transform="translate(0.240051)" />
      </clipPath>
    </defs>
  </symbol>

  <symbol id="logo-amazon" viewBox="0 0 160 48" fill="none" xmlns="http://www.w3.org/2000/svg">
    <g clip-path="url(#clip0_32_909)">
      <path fill-rule="evenodd" clip-rule="evenodd"
        d="M99.4627 37.5375C90.1957 44.3599 76.7638 48 65.1991 48C48.9837 48 34.3855 42.0095 23.3415 32.0462C22.4738 31.2627 23.2513 30.195 24.2925 30.8051C36.2112 37.7316 50.9481 41.8986 66.171 41.8986C76.4375 41.8986 87.7315 39.777 98.116 35.3742C99.6848 34.7086 100.997 36.4004 99.4627 37.5375Z"
        fill="#999999" />
      <path fill-rule="evenodd" clip-rule="evenodd"
        d="M103.315 33.1348C102.135 31.6233 95.4851 32.4206 92.5003 32.7743C91.5909 32.8852 91.4521 32.0948 92.2712 31.5262C97.5676 27.803 106.258 28.8777 107.272 30.1257C108.285 31.3806 107.008 40.0821 102.031 44.2352C101.267 44.873 100.539 44.5333 100.879 43.6874C101.996 40.9002 104.502 34.6532 103.315 33.1348Z"
        fill="#999999" />
      <path fill-rule="evenodd" clip-rule="evenodd"
        d="M92.7085 5.24169V1.62245C92.7085 1.07471 93.125 0.707245 93.6248 0.707245H109.847C110.368 0.707245 110.784 1.08165 110.784 1.62245V4.72169C110.777 5.24169 110.34 5.92116 109.563 6.99584L101.156 18.9837C104.28 18.9074 107.577 19.372 110.41 20.9667C111.048 21.3272 111.222 21.8541 111.27 22.3741V26.236C111.27 26.763 110.687 27.3801 110.076 27.0611C105.085 24.4472 98.4561 24.163 92.9376 27.0889C92.3753 27.3939 91.7853 26.7838 91.7853 26.2568V22.5891C91.7853 21.9997 91.7922 20.9944 92.3823 20.1L102.121 6.14997H93.6456C93.125 6.14997 92.7085 5.7825 92.7085 5.24169Z"
        fill="#999999" />
      <path fill-rule="evenodd" clip-rule="evenodd"
        d="M33.5317 27.8238H28.5963C28.1242 27.7891 27.7494 27.4355 27.7147 26.9848V1.68486C27.7147 1.17872 28.1381 0.77658 28.6657 0.77658H33.2679C33.7469 0.797366 34.1287 1.16485 34.1634 1.62245V4.92969H34.2536C35.4545 1.73339 37.7105 0.242706 40.7509 0.242706C43.8399 0.242706 45.7697 1.73339 47.158 4.92969C48.352 1.73339 51.0661 0.242706 53.9746 0.242706C56.0432 0.242706 58.3062 1.09551 59.6875 3.00913C61.2494 5.13769 60.9301 8.22998 60.9301 10.9409L60.9231 26.9086C60.9231 27.4147 60.4997 27.8238 59.9721 27.8238H55.0436C54.5508 27.7891 54.1551 27.3939 54.1551 26.9086V13.4994C54.1551 12.4316 54.2523 9.7692 54.0163 8.75692C53.6484 7.05824 52.5447 6.57983 51.1147 6.57983C49.9207 6.57983 48.6713 7.37718 48.1645 8.65293C47.6578 9.92867 47.7064 12.0642 47.7064 13.4994V26.9086C47.7064 27.4147 47.283 27.8238 46.7554 27.8238H41.8269C41.3271 27.7891 40.9384 27.3939 40.9384 26.9086L40.9314 13.4994C40.9314 10.6775 41.3965 6.52437 37.891 6.52437C34.3439 6.52437 34.4827 10.5735 34.4827 13.4994V26.9086C34.4827 27.4147 34.0593 27.8238 33.5317 27.8238"
        fill="#999999" />
      <path fill-rule="evenodd" clip-rule="evenodd"
        d="M124.751 0.242706C132.074 0.242706 136.038 6.52437 136.038 14.5116C136.038 22.2285 131.658 28.3507 124.751 28.3507C117.559 28.3507 113.644 22.0691 113.644 14.2412C113.644 6.3649 117.608 0.242706 124.751 0.242706ZM124.792 5.40809C121.155 5.40809 120.926 10.3585 120.926 13.4439C120.926 16.5362 120.877 23.1368 124.751 23.1368C128.576 23.1368 128.756 17.812 128.756 14.5671C128.756 12.4316 128.666 9.88014 128.02 7.85558C127.465 6.0945 126.361 5.40809 124.792 5.40809Z"
        fill="#999999" />
      <path fill-rule="evenodd" clip-rule="evenodd"
        d="M145.534 27.8238H140.619C140.126 27.7891 139.731 27.3939 139.731 26.9086L139.724 1.60165C139.765 1.13711 140.175 0.77658 140.675 0.77658H145.249C145.68 0.797366 146.034 1.08858 146.131 1.48379V5.35262H146.221C147.602 1.89286 149.539 0.242706 152.947 0.242706C155.162 0.242706 157.321 1.04005 158.709 3.22407C160 5.24862 160 8.65292 160 11.1004V27.0264C159.944 27.4702 159.535 27.8238 159.049 27.8238H154.1C153.648 27.7891 153.274 27.4563 153.225 27.0264V13.2844C153.225 10.518 153.544 6.4689 150.136 6.4689C148.935 6.4689 147.831 7.27318 147.283 8.49345C146.589 10.0396 146.499 11.5788 146.499 13.2844V26.9086C146.492 27.4147 146.061 27.8238 145.534 27.8238"
        fill="#999999" />
      <path fill-rule="evenodd" clip-rule="evenodd"
        d="M79.7764 15.7389C79.7764 17.6594 79.825 19.261 78.8532 20.9667C78.0688 22.3533 76.8193 23.2061 75.4379 23.2061C73.5429 23.2061 72.4322 21.764 72.4322 19.6354C72.4322 15.4338 76.2015 14.6711 79.7764 14.6711V15.7389ZM84.7535 27.7545C84.4272 28.0457 83.9552 28.0665 83.5873 27.8723C81.9491 26.5134 81.6506 25.8824 80.7552 24.5859C78.0479 27.3454 76.1251 28.1705 72.6196 28.1705C68.4616 28.1705 65.2338 25.612 65.2338 20.4883C65.2338 16.4877 67.3996 13.7628 70.4955 12.4316C73.175 11.2529 76.9165 11.0449 79.7764 10.7191V10.0812C79.7764 8.90946 79.8666 7.52278 79.1725 6.5105C78.5755 5.60222 77.4232 5.22782 76.4028 5.22782C74.5216 5.22782 72.8487 6.19156 72.4392 8.18838C72.3559 8.63212 72.0296 9.06893 71.5784 9.08973L66.7957 8.57665C66.3931 8.48652 65.9419 8.16065 66.0599 7.54358C67.1566 1.74725 72.4045 3.05176e-05 77.097 3.05176e-05C79.4987 3.05176e-05 82.6363 0.637905 84.5314 2.45446C86.9331 4.69395 86.7041 7.68224 86.7041 10.934V18.6162C86.7041 20.9251 87.662 21.9373 88.5644 23.1853C88.8768 23.6291 88.9462 24.163 88.5436 24.4958C87.537 25.3347 85.7461 26.8947 84.7604 27.7683L84.7535 27.7544"
        fill="#999999" />
      <path fill-rule="evenodd" clip-rule="evenodd"
        d="M15.0741 15.7389C15.0741 17.6594 15.1227 19.261 14.1509 20.9667C13.3665 22.3533 12.124 23.2061 10.7356 23.2061C8.8406 23.2061 7.73689 21.764 7.73689 19.6354C7.73689 15.4338 11.5062 14.6711 15.0741 14.6711V15.7389ZM20.0512 27.7545C19.725 28.0457 19.2529 28.0665 18.885 27.8723C17.2468 26.5134 16.9553 25.8824 16.0529 24.5859C13.3457 27.3454 11.4298 28.1705 7.91737 28.1705C3.76632 28.1705 0.531555 25.612 0.531555 20.4883C0.531555 16.4877 2.70426 13.7628 5.79326 12.4316C8.4727 11.2529 12.2142 11.0449 15.0741 10.7191V10.0812C15.0741 8.90946 15.1644 7.52278 14.4771 6.5105C13.8732 5.60222 12.7209 5.22782 11.7075 5.22782C9.8263 5.22782 8.14644 6.19156 7.73689 8.18838C7.65359 8.63212 7.32734 9.06893 6.88308 9.08973L2.09341 8.57665C1.69079 8.48652 1.24653 8.16065 1.3576 7.54358C2.46131 1.74725 7.70218 3.05176e-05 12.3947 3.05176e-05C14.7965 3.05176e-05 17.934 0.637905 19.8291 2.45446C22.2309 4.69395 22.0018 7.68224 22.0018 10.934V18.6162C22.0018 20.9251 22.9597 21.9373 23.8621 23.1853C24.1814 23.6291 24.2509 24.163 23.8482 24.4958C22.8417 25.3347 21.0508 26.8947 20.0651 27.7683L20.0512 27.7544"
        fill="#999999" />
    </g>
    <defs>
      <clipPath id="clip0_32_909">
        <rect width="159.468" height="48" fill="white" transform="translate(0.531555)" />
      </clipPath>
    </defs>
  </symbol>

  <!-- Simple icons. -->
  <symbol id="icon-award" viewBox="0 0 43 41" fill="none" xmlns="http://www.w3.org/2000/svg">
    <path
      d="M21.1992 25.3125C28.0289 25.3125 33.5654 20.0239 33.5654 13.5C33.5654 6.97614 28.0289 1.6875 21.1992 1.6875C14.3695 1.6875 8.83301 6.97614 8.83301 13.5C8.83301 20.0239 14.3695 25.3125 21.1992 25.3125Z"
      stroke="white" stroke-width="3" stroke-linecap="round" stroke-linejoin="round" />
    <path d="M14.5038 23.4394L12.3662 38.8125L21.1992 33.75L30.0322 38.8125L27.8946 23.4225" stroke="white"
      stroke-width="3" stroke-linecap="round" stroke-linejoin="round" />
  </symbol>

  <symbol id="icon-headphones" viewBox="0 0 43 41" fill="none" xmlns="http://www.w3.org/2000/svg">
    <path
      d="M5.2998 30.375V20.25C5.2998 16.222 6.97492 12.359 9.95663 9.51082C12.9384 6.66261 16.9824 5.0625 21.1992 5.0625C25.416 5.0625 29.4601 6.66261 32.4418 9.51082C35.4235 12.359 37.0986 16.222 37.0986 20.25V30.375"
      stroke="white" stroke-width="3" stroke-linecap="round" stroke-linejoin="round" />
    <path
      d="M37.0986 32.0625C37.0986 32.9576 36.7264 33.816 36.0638 34.449C35.4012 35.0819 34.5025 35.4375 33.5654 35.4375H31.7988C30.8618 35.4375 29.9631 35.0819 29.3005 34.449C28.6379 33.816 28.2656 32.9576 28.2656 32.0625V27C28.2656 26.1049 28.6379 25.2465 29.3005 24.6135C29.9631 23.9806 30.8618 23.625 31.7988 23.625H37.0986V32.0625ZM5.2998 32.0625C5.2998 32.9576 5.67205 33.816 6.33466 34.449C6.99726 35.0819 7.89594 35.4375 8.83301 35.4375H10.5996C11.5367 35.4375 12.4354 35.0819 13.098 34.449C13.7606 33.816 14.1328 32.9576 14.1328 32.0625V27C14.1328 26.1049 13.7606 25.2465 13.098 24.6135C12.4354 23.9806 11.5367 23.625 10.5996 23.625H5.2998V32.0625Z"
      stroke="white" stroke-width="3" stroke-linecap="round" stroke-linejoin="round" />
  </symbol>

  <symbol id="icon-vector" viewBox="0 0 33 38" fill="none" xmlns="http://www.w3.org/2000/svg">
    <path
      d="M16.1992 0.6875L0.299805 7.4375V17.5625C0.299805 26.9281 7.08355 35.6862 16.1992 37.8125C25.3149 35.6862 32.0986 26.9281 32.0986 17.5625V7.4375L16.1992 0.6875ZM28.5654 17.5625C28.5654 25.19 23.301 32.2269 16.1992 34.3194C9.09748 32.2269 3.83301 25.19 3.83301 17.5625V9.63125L16.1992 4.38313L28.5654 9.63125V17.5625ZM8.09052 18.5581L5.59961 20.9375L12.666 27.6875L26.7988 14.1875L24.3079 11.7913L12.666 22.9119L8.09052 18.5581Z"
      fill="white" />
  </symbol>

  <!-- Social icons. -->
  <symbol id="social-icon-instagram" viewBox="0 0 33 32" fill="none" xmlns="http://www.w3.org/2000/svg">
    <path fill-rule="evenodd" clip-rule="evenodd"
      d="M16.9309 7.46655C14.6134 7.46655 14.3225 7.47669 13.4123 7.51811C12.5038 7.55971 11.8838 7.70353 11.3412 7.91456C10.7799 8.13252 10.3038 8.42407 9.82951 8.89857C9.35484 9.37288 9.06328 9.84898 8.84461 10.41C8.63305 10.9528 8.48905 11.5731 8.44816 12.4812C8.40745 13.3914 8.39678 13.6824 8.39678 16C8.39678 18.3175 8.40709 18.6075 8.44834 19.5177C8.49012 20.4262 8.63394 21.0462 8.84479 21.5888C9.06292 22.1501 9.35448 22.6262 9.82897 23.1005C10.3031 23.5752 10.7792 23.8674 11.3401 24.0854C11.883 24.2964 12.5033 24.4402 13.4116 24.4818C14.3218 24.5233 14.6125 24.5334 16.9298 24.5334C19.2476 24.5334 19.5375 24.5233 20.4478 24.4818C21.3562 24.4402 21.977 24.2964 22.52 24.0854C23.081 23.8674 23.5564 23.5752 24.0305 23.1005C24.5052 22.6262 24.7968 22.1501 25.0154 21.589C25.2252 21.0462 25.3692 20.426 25.4119 19.5179C25.4528 18.6076 25.4634 18.3175 25.4634 16C25.4634 13.6824 25.4528 13.3916 25.4119 12.4814C25.3692 11.5729 25.2252 10.9528 25.0154 10.4102C24.7968 9.84898 24.5052 9.37288 24.0305 8.89857C23.5559 8.4239 23.0812 8.13234 22.5194 7.91456C21.9754 7.70353 21.355 7.55971 20.4465 7.51811C19.5363 7.47669 19.2465 7.46655 16.9282 7.46655H16.9309ZM16.1654 9.00432C16.3926 9.00397 16.6461 9.00432 16.9309 9.00432C19.2093 9.00432 19.4793 9.0125 20.3791 9.05339C21.2111 9.09143 21.6627 9.23046 21.9635 9.34726C22.3617 9.50193 22.6456 9.68682 22.9441 9.98549C23.2428 10.2842 23.4277 10.5686 23.5827 10.9668C23.6995 11.2673 23.8387 11.7188 23.8765 12.5508C23.9174 13.4504 23.9263 13.7206 23.9263 15.998C23.9263 18.2754 23.9174 18.5456 23.8765 19.4451C23.8385 20.2772 23.6995 20.7287 23.5827 21.0292C23.428 21.4274 23.2428 21.7109 22.9441 22.0094C22.6454 22.3081 22.3619 22.493 21.9635 22.6477C21.663 22.765 21.2111 22.9037 20.3791 22.9417C19.4795 22.9826 19.2093 22.9915 16.9309 22.9915C14.6523 22.9915 14.3822 22.9826 13.4827 22.9417C12.6507 22.9033 12.1991 22.7643 11.8981 22.6475C11.4999 22.4928 11.2154 22.3079 10.9168 22.0093C10.6181 21.7106 10.4332 21.4269 10.2782 21.0284C10.1614 20.728 10.0222 20.2764 9.98432 19.4444C9.94343 18.5449 9.93525 18.2746 9.93525 15.9959C9.93525 13.7171 9.94343 13.4483 9.98432 12.5487C10.0224 11.7167 10.1614 11.2651 10.2782 10.9643C10.4329 10.5661 10.6181 10.2817 10.9168 9.983C11.2154 9.68433 11.4999 9.49944 11.8981 9.34441C12.1989 9.22708 12.6507 9.08841 13.4827 9.05019C14.2699 9.01463 14.5749 9.00397 16.1654 9.00219V9.00432ZM21.486 10.4212C20.9206 10.4212 20.4619 10.8794 20.4619 11.4449C20.4619 12.0102 20.9206 12.4689 21.486 12.4689C22.0513 12.4689 22.51 12.0102 22.51 11.4449C22.51 10.8795 22.0513 10.4212 21.486 10.4212ZM16.9309 11.6177C14.5108 11.6177 12.5487 13.5798 12.5487 16C12.5487 18.4201 14.5108 20.3813 16.9309 20.3813C19.351 20.3813 21.3125 18.4201 21.3125 16C21.3125 13.5798 19.351 11.6177 16.9309 11.6177ZM16.9309 13.1555C18.5018 13.1555 19.7754 14.4289 19.7754 16C19.7754 17.5708 18.5018 18.8444 16.9309 18.8444C15.3599 18.8444 14.0864 17.5708 14.0864 16C14.0864 14.4289 15.3599 13.1555 16.9309 13.1555Z"
      fill="white" />
  </symbol>

  <symbol id="social-icon-dribbble" viewBox="0 0 33 32" fill="none" xmlns="http://www.w3.org/2000/svg">
    <path fill-rule="evenodd" clip-rule="evenodd"
      d="M25.4634 15.9881C25.4634 16.5651 25.4047 17.1414 25.2893 17.7032C25.1768 18.2516 25.0101 18.79 24.7918 19.3047C24.5784 19.8103 24.3138 20.2975 24.0047 20.7518C23.7001 21.2033 23.3492 21.6269 22.9638 22.013C22.5775 22.3975 22.1525 22.7474 21.7012 23.0532C21.2454 23.3603 20.7574 23.6245 20.2516 23.8388C19.7361 24.056 19.1965 24.2224 18.6485 24.3348C18.0861 24.4505 17.5077 24.5095 16.9297 24.5095C16.3514 24.5095 15.773 24.4505 15.2113 24.3348C14.6626 24.2224 14.1229 24.056 13.6079 23.8388C13.1021 23.6245 12.6137 23.3603 12.1578 23.0532C11.7066 22.7474 11.2815 22.3975 10.8961 22.013C10.5103 21.6269 10.1594 21.2033 9.85437 20.7518C9.54686 20.2975 9.28182 19.8102 9.06766 19.3047C8.84929 18.79 8.68222 18.2516 8.56929 17.7032C8.45513 17.1414 8.39678 16.5651 8.39678 15.9881C8.39678 15.4105 8.4551 14.833 8.56933 14.2725C8.68225 13.7241 8.84932 13.1848 9.06769 12.671C9.28186 12.165 9.54689 11.6774 9.85441 11.223C10.1594 10.7711 10.5103 10.3484 10.8961 9.96183C11.2816 9.57734 11.7066 9.22828 12.1579 8.92287C12.6137 8.61453 13.1021 8.35035 13.6079 8.13563C14.123 7.91797 14.6626 7.75115 15.2114 7.63965C15.773 7.52482 16.3514 7.46655 16.9298 7.46655C17.5077 7.46655 18.0861 7.52482 18.6486 7.63965C19.1965 7.75118 19.7361 7.91801 20.2516 8.13563C20.7574 8.35032 21.2454 8.61453 21.7012 8.92287C22.1525 9.22828 22.5776 9.57734 22.9638 9.96183C23.3492 10.3484 23.7001 10.7711 24.0047 11.223C24.3138 11.6774 24.5784 12.1651 24.7918 12.671C25.0101 13.1848 25.1768 13.7241 25.2893 14.2725C25.4047 14.833 25.4634 15.4105 25.4634 15.9881ZM13.8204 9.40593C11.7882 10.3642 10.2714 12.2341 9.79847 14.4876C9.99059 14.4893 13.0274 14.5276 16.5263 13.5993C15.265 11.3615 13.9175 9.53537 13.8204 9.40593ZM17.1301 14.7198C13.3778 15.8416 9.77722 15.7609 9.64806 15.7559C9.64596 15.8341 9.64222 15.9098 9.64222 15.988C9.64222 17.8575 10.3485 19.5618 11.5094 20.8505C11.5069 20.8467 13.5012 17.3137 17.4339 16.0438C17.5289 16.0122 17.6256 15.9839 17.7214 15.9564C17.5385 15.5429 17.3389 15.1284 17.1301 14.7198ZM21.7425 10.5265C20.4595 9.39677 18.7748 8.71152 16.9297 8.71152C16.3376 8.71152 15.763 8.78309 15.2125 8.9154C15.3217 9.06188 16.6905 10.8752 17.9368 13.1603C20.6866 12.1309 21.7245 10.5531 21.7425 10.5265ZM18.2181 17.1622C18.2019 17.1676 18.1857 17.1723 18.1698 17.1781C13.8701 18.6748 12.4659 21.6913 12.4507 21.7242C13.6879 22.685 15.2397 23.2646 16.9298 23.2646C17.9389 23.2646 18.9002 23.0594 19.7749 22.6879C19.6669 22.0521 19.2436 19.8235 18.2181 17.1622ZM21.002 22.023C22.6383 20.9204 23.8005 19.1695 24.1246 17.1414C23.9746 17.0931 21.9358 16.4486 19.5836 16.8252C20.5394 19.4482 20.9278 21.5844 21.002 22.023ZM18.4978 14.2446C18.6669 14.5917 18.8307 14.9449 18.9819 15.2998C19.0357 15.4272 19.0882 15.552 19.1394 15.6768C21.6429 15.3622 24.1093 15.8915 24.2147 15.9131C24.1981 14.188 23.5801 12.6048 22.5576 11.3653C22.5438 11.3848 21.375 13.0712 18.4978 14.2446Z"
      fill="white" />
  </symbol>

  <symbol id="social-icon-x" viewBox="0 0 33 32" fill="none" xmlns="http://www.w3.org/2000/svg">
    <path fill-rule="evenodd" clip-rule="evenodd"
      d="M16.4509 13.0051L16.4845 13.5587L15.9249 13.4909C13.888 13.2311 12.1085 12.3498 10.5977 10.8696L9.85902 10.1352L9.66876 10.6776C9.26586 11.8865 9.52327 13.1633 10.3626 14.022C10.8103 14.4965 10.7096 14.5643 9.93736 14.2819C9.66876 14.1915 9.43374 14.1237 9.41136 14.1576C9.33301 14.2367 9.60161 15.2648 9.81426 15.6716C10.1052 16.2365 10.6984 16.7902 11.3475 17.1178L11.8959 17.3777L11.2468 17.389C10.6201 17.389 10.5977 17.4003 10.6648 17.6376C10.8887 18.372 11.7728 19.1516 12.7577 19.4906L13.4515 19.7278L12.8472 20.0894C11.9519 20.6091 10.8998 20.9029 9.84783 20.9255C9.34421 20.9368 8.93011 20.982 8.93011 21.0159C8.93011 21.1289 10.2955 21.7616 11.0901 22.0102C13.4739 22.7446 16.3054 22.4282 18.4318 21.1741C19.9427 20.2815 21.4536 18.5076 22.1587 16.7902C22.5392 15.875 22.9197 14.2028 22.9197 13.4006C22.9197 12.8808 22.9533 12.813 23.58 12.1916C23.9493 11.83 24.2963 11.4346 24.3634 11.3216C24.4753 11.1069 24.4642 11.1069 23.8934 11.299C22.9421 11.638 22.8078 11.5928 23.2778 11.0843C23.6248 10.7228 24.0389 10.0674 24.0389 9.87536C24.0389 9.84146 23.871 9.89796 23.6807 9.99964C23.4793 10.1126 23.0316 10.2821 22.6959 10.3838L22.0915 10.5759L21.5431 10.203C21.241 9.99964 20.8157 9.77367 20.5918 9.70588C20.0211 9.5477 19.1481 9.57029 18.6333 9.75107C17.2343 10.2595 16.3502 11.5702 16.4509 13.0051Z"
      fill="white" />
  </symbol>

  <symbol id="social-icon-youtube" viewBox="0 0 33 32" fill="none" xmlns="http://www.w3.org/2000/svg">
    <path fill-rule="evenodd" clip-rule="evenodd"
      d="M23.5979 10.4995C24.3322 10.701 24.9105 11.2948 25.1068 12.0488C25.4635 13.4153 25.4635 16.2666 25.4635 16.2666C25.4635 16.2666 25.4635 19.1178 25.1068 20.4845C24.9105 21.2385 24.3322 21.8322 23.5979 22.0338C22.267 22.4 16.9301 22.4 16.9301 22.4C16.9301 22.4 11.5932 22.4 10.2623 22.0338C9.52794 21.8322 8.94961 21.2385 8.75335 20.4845C8.39679 19.1178 8.39679 16.2666 8.39679 16.2666C8.39679 16.2666 8.39679 13.4153 8.75335 12.0488C8.94961 11.2948 9.52794 10.701 10.2623 10.4995C11.5932 10.1333 16.9301 10.1333 16.9301 10.1333C16.9301 10.1333 22.267 10.1333 23.5979 10.4995ZM15.3301 13.8666V19.1999L19.5968 16.5333L15.3301 13.8666Z"
      fill="white" />
  </symbol>
</svg>